<svg version="1.0" xmlns="http://www.w3.org/2000/svg" width="145.333" height="162.667" viewBox="0 0 109 122"><path d="M17.1 16.1C13.2 23 8.4 37.5 6.5 48.4c-5.7 33 6.3 54.2 34.2 60.1 14.5 3.1 32.1 1 43.5-5.2 7-3.8 14-11.8 17.4-20 2.7-6.4 2.9-7.6 2.8-20.8 0-12-.3-15.4-2.6-23.7-2.6-9.3-7.3-20.8-10.4-25.6-1.5-2.2-1.5-2.2-4.5-.5-4 2.3-12.5 11.5-14.8 16l-1.8 3.5-15 .2-15 .1-2.9-4.8c-3-5-11.3-13.5-15.1-15.6-2.1-1-2.5-.7-5.2 4zm16.3 39c4 1.8 7.9 8.6 8.4 14.5.4 4.6.2 5.3-2.3 7.2-5.6 4.4-15.4 3.7-19.4-1.4-3.2-4.1-3.6-8.7-1.2-13.6 3.2-6.7 8.8-9.3 14.5-6.7zm52.6.4c3.4 1.8 7 8.1 7 12.3 0 1.6-1 4.4-2.3 6.3-6 9-22.7 6.8-22.7-2.9.1-7.7 7-17.2 12.6-17.2 1.4 0 3.8.7 5.4 1.5zM60 78.7c0 1.1-1.2 2.6-3.3 4.2-1.5 1.2-2.1 1.1-4.2-.9-1.4-1.3-2.5-2.7-2.5-3.2 0-.4 2.3-.8 5-.8 2.8 0 5 .3 5 .7zm-13.6 7.8c.7 2 6 1.9 7.7-.1 1.1-1.4 1.3-1.4 2.1 0 1.2 2.2 7.4 2.1 8.2 0 .4-.9.9-1.4 1.3-1 .3.3-.2 1.5-1.2 2.6-2 2.2-5.5 2.6-7.3.8-.9-.9-1.8-.9-3.7 0-1.4.7-3.3 1.2-4.2 1.2-1.8 0-5.3-2.8-5.3-4.2 0-1.4 1.8-.9 2.4.7z"/><path d="M29.5 62.5c-3.5 3.4-3.5 9.6 0 13 3.1 3.1 4.9 3.1 8 0 3.5-3.4 3.5-9.6 0-13-1.3-1.4-3.1-2.5-4-2.5-.9 0-2.7 1.1-4 2.5zm43 0c-2.9 2.8-3.3 7.1-1 11.5 2.8 5.5 8.5 4.7 11.1-1.6 1.2-2.9 1.2-3.9 0-6.8-1.4-3.3-4.1-5.6-6.6-5.6-.6 0-2.2 1.1-3.5 2.5z"/></svg>