<svg xmlns="http://www.w3.org/2000/svg" xmlns:xlink="http://www.w3.org/1999/xlink"><symbol id="icon-cart-happy" viewBox="0 0 109 122"><path d="M17.1 16.1C13.2 23 8.4 37.5 6.5 48.4c-5.7 33 6.3 54.2 34.2 60.1 14.5 3.1 32.1 1 43.5-5.2 7-3.8 14-11.8 17.4-20 2.7-6.4 2.9-7.6 2.8-20.8 0-12-.3-15.4-2.6-23.7-2.6-9.3-7.3-20.8-10.4-25.6-1.5-2.2-1.5-2.2-4.5-.5-4 2.3-12.5 11.5-14.8 16l-1.8 3.5-15 .2-15 .1-2.9-4.8c-3-5-11.3-13.5-15.1-15.6-2.1-1-2.5-.7-5.2 4zm16.3 39c4 1.8 7.9 8.6 8.4 14.5.4 4.6.2 5.3-2.3 7.2-5.6 4.4-15.4 3.7-19.4-1.4-3.2-4.1-3.6-8.7-1.2-13.6 3.2-6.7 8.8-9.3 14.5-6.7zm52.6.4c3.4 1.8 7 8.1 7 12.3 0 1.6-1 4.4-2.3 6.3-6 9-22.7 6.8-22.7-2.9.1-7.7 7-17.2 12.6-17.2 1.4 0 3.8.7 5.4 1.5zM60 78.7c0 1.1-1.2 2.6-3.3 4.2-1.5 1.2-2.1 1.1-4.2-.9-1.4-1.3-2.5-2.7-2.5-3.2 0-.4 2.3-.8 5-.8 2.8 0 5 .3 5 .7zm-13.6 7.8c.7 2 6 1.9 7.7-.1 1.1-1.4 1.3-1.4 2.1 0 1.2 2.2 7.4 2.1 8.2 0 .4-.9.9-1.4 1.3-1 .3.3-.2 1.5-1.2 2.6-2 2.2-5.5 2.6-7.3.8-.9-.9-1.8-.9-3.7 0-1.4.7-3.3 1.2-4.2 1.2-1.8 0-5.3-2.8-5.3-4.2 0-1.4 1.8-.9 2.4.7z"/><path d="M29.5 62.5c-3.5 3.4-3.5 9.6 0 13 3.1 3.1 4.9 3.1 8 0 3.5-3.4 3.5-9.6 0-13-1.3-1.4-3.1-2.5-4-2.5-.9 0-2.7 1.1-4 2.5zm43 0c-2.9 2.8-3.3 7.1-1 11.5 2.8 5.5 8.5 4.7 11.1-1.6 1.2-2.9 1.2-3.9 0-6.8-1.4-3.3-4.1-5.6-6.6-5.6-.6 0-2.2 1.1-3.5 2.5z"/></symbol><symbol id="icon-cart-unhappy" viewBox="0 0 109 122"><path d="M17.1 16.1C13.2 23 8.4 37.5 6.5 48.4c-5.7 33 6.3 54.2 34.2 60.1 14.5 3.1 32.1 1 43.5-5.2 7-3.8 14-11.8 17.4-20 2.7-6.4 2.9-7.6 2.8-20.8 0-12-.3-15.4-2.6-23.7-2.6-9.3-7.3-20.8-10.4-25.6-1.5-2.2-1.5-2.2-4.5-.5-4 2.3-12.5 11.5-14.8 16l-1.8 3.5-15 .2-15 .1-2.9-4.8c-3-5-11.3-13.5-15.1-15.6-2.1-1-2.5-.7-5.2 4zm16.3 39c4 1.8 7.9 8.6 8.4 14.5.4 4.6.2 5.3-2.3 7.2-5.6 4.4-15.4 3.7-19.4-1.4-3.2-4.1-3.6-8.7-1.2-13.6 3.2-6.7 8.8-9.3 14.5-6.7zm52.6.4c3.4 1.8 7 8.1 7 12.3 0 1.6-1 4.4-2.3 6.3-6 9-22.7 6.8-22.7-2.9.1-7.7 7-17.2 12.6-17.2 1.4 0 3.8.7 5.4 1.5zM17.9 79.2c.1 1-.6 1.8-1.4 1.8-1.6 0-2-2.6-.8-5.6.6-1.6.7-1.6 1.4.2.4 1 .8 2.7.8 3.6zm42.1-.5c0 1.1-1.2 2.6-3.3 4.2-1.5 1.2-2.1 1.1-4.2-.9-1.4-1.3-2.5-2.7-2.5-3.2 0-.4 2.3-.8 5-.8 2.8 0 5 .3 5 .7zm-7.2 8.5c.9.9 1.8.9 3.7 0 1.4-.7 3.4-1.2 4.4-1.2 2.1 0 5.8 3.7 4.7 4.7-.4.5-1.2 0-1.7-1-1.2-2.1-6.2-2.3-8-.1-1.1 1.4-1.3 1.4-2.1 0-1.2-2.2-7.4-2.1-8.2 0-.4.9-.9 1.4-1.3 1-.3-.3.2-1.5 1.2-2.6 2-2.2 5.5-2.6 7.3-.8z"/><path d="M29.5 62.5c-3.5 3.4-3.5 9.6 0 13 3.1 3.1 4.9 3.1 8 0 3.5-3.4 3.5-9.6 0-13-1.3-1.4-3.1-2.5-4-2.5-.9 0-2.7 1.1-4 2.5zm43 0c-2.9 2.8-3.3 7.1-1 11.5 2.8 5.5 8.5 4.7 11.1-1.6 1.2-2.9 1.2-3.9 0-6.8-1.4-3.3-4.1-5.6-6.6-5.6-.6 0-2.2 1.1-3.5 2.5z"/></symbol><symbol id="icon-cart" viewBox="0 0 246 211"><path d="M116.1 30.3c-.5 1.2-4.6 14-9.1 28.2-4.5 14.3-8.7 27.9-9.5 30.2-.7 2.3-3 6.4-5 9l-3.7 4.8-23.6.5c-22.8.5-23.7.6-23.7 2.5 0 1.4.8 2.1 3 2.5l3 .5 1.6 11.3c1.5 10.8 1.5 11.4-.3 12.3-2.5 1.3-2.3 3.8.5 4.8 2 .7 2.4 2 3.7 11.7l1.5 10.9-2.3.9c-3.3 1.2-2.6 5 .9 5.4 2.5.3 2.7.7 3.4 6.7.8 7.6 3.5 12.2 8.5 14.7 3.2 1.6 8 1.8 56.5 1.8s53.3-.2 56.5-1.8c5-2.5 7.7-7.1 8.5-14.7.7-6 .9-6.4 3.4-6.7 3.5-.4 4.2-4.2.9-5.4l-2.4-.9 1.4-10.8c1.3-9.9 1.7-10.9 3.8-11.7 2.8-1.1 3.1-3.5.6-4.9-1.8-.9-1.8-1.5-.3-12.3l1.6-11.3 3-.5c2.2-.4 3-1.1 3-2.5 0-1.9-.9-2-23.7-2.5l-23.6-.5-3.7-4.8c-2.6-3.4-4.7-8.1-7-15.6-7.9-25.6-16.8-52.7-17.6-53.6-.6-.6-1.6-.5-2.9.3-1.2.7-2.1.8-2.5.2-1.1-1.8-3.5-1.1-4.4 1.3zm15.4 32c5.2 16.3 9.5 30.1 9.5 30.7 0 .7-1.4 3.2-3.2 5.6l-3.1 4.4h-26.4l-3.1-4.4c-1.8-2.4-3.2-5-3.2-5.6 0-1 6.2-21 17.2-54.8 1.1-3.5 2.2-6.1 2.4-5.9.3.2 4.7 13.8 9.9 30zM101 102.1c0 .5-1.1.9-2.5.9-2.7 0-3.2-.9-1.3-2.8 1.2-1.2 3.8.1 3.8 1.9zm46 0c0 .5-1.1.9-2.5.9-2.7 0-3.2-.9-1.3-2.8 1.2-1.2 3.8.1 3.8 1.9zm-70.9 10.4c.4 2.2.8 7.4 1 11.5l.4 7.5-10.7.3c-6 .1-10.8-.1-10.8-.5s-.7-5.1-1.5-10.3c-2.2-14.5-3.3-13.1 9.7-12.8l11.2.3.7 4zm25.7 7.7l.3 11.8H93c-6.4 0-9.2-.4-9.5-1.3-.7-2.1-2.3-21.2-1.8-22 .2-.4 4.8-.6 10.1-.5l9.7.3.3 11.7zm34.2-7c0 2.9-.3 8.3-.7 12l-.6 6.8h-26.4l-.7-7.7c-.3-4.2-.6-9.6-.6-12V108h29v5.2zm25.2 1.4c-.2 3.3-.7 8.5-1 11.5l-.7 5.4-9.2.3-9.3.3v-11.4c0-6.2.3-11.7.7-12.1.4-.4 5-.5 10.3-.4l9.5.3-.3 6.1zm28.8-4.9c0 1-.7 6.1-1.5 11.3-.8 5.2-1.5 9.8-1.5 10.2 0 1.1-20.8 1-21.4 0-.6-1 1.2-21.1 2-22.3.3-.5 5.4-.9 11.5-.9 9.7 0 10.9.2 10.9 1.7zm-111.6 29c.2 1 .8 6.2 1.2 11.5l.6 9.8H70.1c-5.5 0-10.1-.3-10.1-.8 0-.4-.7-5-1.5-10.2-.8-5.2-1.5-10.1-1.5-10.8 0-.9 2.7-1.2 10.4-1.2 9.1 0 10.5.2 11 1.7zm24.4 10l.3 11.3h-8.5c-9.9 0-9.1 1-10.1-13.3l-.7-9.8 9.4.3 9.3.3.3 11.2zm32.2-7c0 2.7-.3 7.8-.7 11.5l-.6 6.8h-24.4l-.6-6.8c-.4-3.7-.7-8.8-.7-11.5V137h27v4.7zm23.6 4c-1.2 15.4-.4 14.3-10.2 14.3H140v-10.8c0-6 .3-11.2.7-11.5.3-.4 4.7-.7 9.6-.7h8.9l-.6 8.7zm27.4-7.5c0 .7-.7 5.6-1.5 10.8-.8 5.2-1.5 9.8-1.5 10.2 0 .5-4.6.8-10.1.8h-10.1l.6-9.8c1.1-14.3 0-13.2 12.2-13.2 7.7 0 10.4.3 10.4 1.2zM81.4 173.1c.4 3.9 1 7.7 1.3 8.5.4 1.1-1 1.4-7.4 1.4-7 0-8.2-.3-10.1-2.3-1.8-1.9-4.2-9.9-4.2-13.8 0-.5 4.4-.9 9.9-.9h9.8l.7 7.1zm22.8 1.4l.3 8.6-7.5-.3c-6.9-.3-7.6-.5-8.6-2.8-.7-1.4-1.4-5.1-1.6-8.3l-.5-5.7h17.6l.3 8.5zm29.8-3.8c0 2.7-.3 6.5-.6 8.6l-.7 3.7h-22.4l-.7-3.8c-.3-2-.6-5.8-.6-8.5V166h25v4.7zm22.3 1c-.3 3.2-1.1 6.9-1.7 8.3-1 2.3-1.7 2.5-8.6 2.8l-7.5.3.3-8.6.3-8.5h17.8l-.6 5.7zm25.7-4.8c0 3.9-2.4 11.9-4.2 13.8-1.9 2-3.1 2.3-10.1 2.3-6.4 0-7.8-.3-7.4-1.4.3-.8.9-4.6 1.3-8.5l.7-7.1h9.8c5.5 0 9.9.4 9.9.9z"/></symbol><symbol id="icon-cross"><path d="M7 5.445L12.445 0 14 1.555 8.555 7 14 12.445 12.445 14 7 8.555 1.555 14 0 12.445 5.445 7 0 1.555 1.555 0 7 5.445z" fill="#1D1613"/></symbol></svg>